<svg width="171" height="41" viewBox="0 0 171 41" fill="none" xmlns="http://www.w3.org/2000/svg">
<g clip-path="url(#clip0_1_146)">
<path d="M37.1449 10.1787C35.9201 10.707 34.5873 11.0873 33.2144 11.2354C34.6398 10.3886 35.7072 9.05077 36.2163 7.47295C34.8788 8.26862 33.4135 8.82656 31.8855 9.12202C31.2469 8.43928 30.4745 7.89538 29.6165 7.52421C28.7584 7.15304 27.8332 6.96255 26.8983 6.96462C23.1158 6.96462 20.0739 10.0306 20.0739 13.793C20.0739 14.3214 20.1379 14.8497 20.242 15.3581C14.5783 15.0619 9.52702 12.3561 6.16884 8.21343C5.55694 9.25857 5.23629 10.4486 5.24023 11.6597C5.24023 14.0292 6.44502 16.1186 8.28221 17.3474C7.19952 17.3047 6.14219 17.0071 5.19621 16.4788V16.5628C5.19621 19.881 7.54173 22.6308 10.6678 23.2632C10.0808 23.4157 9.47701 23.4936 8.87059 23.4953C8.4263 23.4953 8.00603 23.4513 7.58175 23.3913C8.44631 26.097 10.9639 28.0623 13.9619 28.1263C11.6164 29.9635 8.67846 31.0442 5.48839 31.0442C4.91602 31.0442 4.38768 31.0242 3.83932 30.9602C6.86529 32.9014 10.4556 34.0222 14.3221 34.0222C26.8743 34.0222 33.7427 23.6234 33.7427 14.5976C33.7427 14.3014 33.7427 14.0052 33.7227 13.709C35.0516 12.7364 36.2163 11.5316 37.1449 10.1787Z" fill="#FA4A0C"/>
<path d="M100.21 4.48291H70.7512C70.0427 4.48291 69.4704 5.05528 69.4704 5.76374V35.2229C69.4704 35.9313 70.0427 36.5037 70.7512 36.5037H100.21C100.919 36.5037 101.491 35.9313 101.491 35.2229V5.76374C101.491 5.05528 100.919 4.48291 100.21 4.48291ZM96.5119 13.829H93.9543C91.949 13.829 91.5607 14.7816 91.5607 16.1825V19.2685H96.3478L95.7234 24.0996H91.5607V36.5037H86.5695V24.1036H82.3948V19.2685H86.5695V15.7062C86.5695 11.5715 89.0951 9.31805 92.7855 9.31805C94.5546 9.31805 96.0716 9.45013 96.5159 9.51017V13.829H96.5119Z" fill="#FA4A0C"/>
<path d="M165.198 4.48291H135.739C135.031 4.48291 134.458 5.05528 134.458 5.76374V35.2229C134.458 35.9313 135.031 36.5037 135.739 36.5037H165.198C165.907 36.5037 166.479 35.9313 166.479 35.2229V5.76374C166.479 5.05528 165.907 4.48291 165.198 4.48291ZM143.956 31.7686H139.205V16.4867H143.956V31.7686ZM141.583 14.3973C141.038 14.3973 140.506 14.2358 140.053 13.9332C139.6 13.6307 139.247 13.2006 139.039 12.6974C138.83 12.1942 138.776 11.6405 138.882 11.1063C138.988 10.5721 139.25 10.0815 139.636 9.69634C140.021 9.31121 140.511 9.04894 141.046 8.94268C141.58 8.83643 142.133 8.89096 142.637 9.09939C143.14 9.30782 143.57 9.66078 143.872 10.1136C144.175 10.5665 144.337 11.0989 144.337 11.6436C144.333 13.1645 143.1 14.3973 141.583 14.3973ZM161.744 31.7686H156.997V24.3358C156.997 22.5626 156.965 20.2852 154.527 20.2852C152.058 20.2852 151.677 22.2144 151.677 24.2077V31.7686H146.934V16.4867H151.489V18.5761H151.553C152.186 17.3753 153.735 16.1065 156.048 16.1065C160.859 16.1065 161.744 19.2725 161.744 23.3872V31.7686Z" fill="#FA4A0C"/>
</g>
<defs>
<clipPath id="clip0_1_146">
<rect width="170.96" height="40.9866" fill="white"/>
</clipPath>
</defs>
</svg>
